# xmcd
#
# Track frame offsets: 
#        150
#        13215
#        25957
#        39005
#        51077
#        62164
#        75138
#        86670
#        98796
#        110353
#        123668
#
# Disc length: 1781 seconds
#
# Revision: 0
# Processed by: cddbd v1.5.2PL0 Copyright (c) Steve Scherf et al.
# Submitted via: ExactAudioCopy v1.0b3
#
DISCID=7f06f30b
DTITLE=The Contours - Do You Love Me (Now That I Can Dance)
DYEAR=1962
DGENRE=Motown
TTITLE0=Do You Love Me
TTITLE1=Shake Sherrie
TTITLE2=You Better Get In Line
TTITLE3=The Stretch
TTITLE4=It Must Be Love
TTITLE5=Whole Lotta Woman
TTITLE6=Claudia
TTITLE7=So Grateful
TTITLE8=The Old Miner
TTITLE9=Funny
TTITLE10=Move Mr Man
EXTD=
EXTT0=
EXTT1=
EXTT2=
EXTT3=
EXTT4=
EXTT5=
EXTT6=
EXTT7=
EXTT8=
EXTT9=
EXTT10=
PLAYORDER=
